<svg xmlns="http://www.w3.org/2000/svg" viewBox="0 0 1015 1015" role="img" aria-labelledby="title"><title id="title">Cuebooker</title><g fill="#E8FF2F"><path d="M629,76 L625,86 L599,205 L599,210 L601,213 L629,220 L666,234 L685,244 L711,261 L731,277 L753,299 L770,320 L789,348 L793,348 L892,276 L894,272 L892,261 L865,214 L844,187 L803,148 L755,116 L711,95 L669,80 L643,73 L634,73Z"/><path d="M886,754 L803,685 L789,676 L739,729 L702,757 L684,768 L649,785 L594,803 L592,806 L593,814 L624,930 L627,935 L632,938 L642,938 L693,922 L747,897 L776,879 L810,853 L847,817 L866,794 L887,762Z"/><path d="M498,456 L484,460 L472,466 L456,481 L448,495 L444,507 L444,533 L453,555 L470,573 L482,580 L495,584 L520,584 L539,577 L558,561 L570,538 L572,513 L568,497 L563,487 L547,469 L536,462 L522,457Z"/><path d="M287,722 L280,726 L150,844 L147,851 L147,857 L153,868 L161,872 L170,872 L176,869 L300,738 L300,736Z"/><path d="M504,816 L499,901 L496,1002 L498,1007 L503,1012 L514,1015 L523,1012 L528,1007 L530,1002 L526,848 L524,817Z"/><path d="M0,478 L0,487 L3,493 L11,499 L165,505 L203,505 L204,487 L76,471 L27,466 L11,466 L3,472Z"/><path d="M513,0 L507,1 L500,5 L496,12 L497,64 L504,192 L506,204 L525,202 L529,12 L524,4Z"/><path d="M176,146 L172,150 L169,157 L171,169 L260,265 L294,299 L308,286 L306,281 L199,149 L190,143 L182,143Z"/><path d="M93,256 L90,262 L90,272 L97,281 L242,366 L244,365 L252,350 L187,302 L114,251 L102,250Z"/><path d="M208,569 L174,575 L40,606 L31,613 L29,618 L29,626 L34,635 L43,639 L64,634 L212,587Z"/><path d="M357,58 L350,61 L344,69 L344,79 L401,227 L403,228 L419,222 L413,196 L375,68 L370,61 L363,58Z"/><path d="M237,648 L235,646 L231,647 L92,717 L85,726 L84,731 L86,739 L91,745 L98,748 L103,748 L122,738 L243,663Z"/><path d="M378,789 L313,922 L312,930 L316,939 L322,943 L336,943 L345,933 L394,806 L396,796Z"/><path d="M68,394 L69,406 L77,414 L207,445 L212,444 L216,429 L215,427 L129,396 L85,382 L74,385Z"/><path d="M582,59 L570,61 L566,65 L563,73 L548,204 L568,206 L594,85 L595,70 L588,61Z"/><path d="M203,527 L70,533 L65,535 L60,540 L58,552 L62,560 L69,564 L88,563 L204,546Z"/><path d="M562,810 L549,813 L561,916 L566,944 L570,949 L577,952 L582,952 L590,949 L594,945 L596,933 L569,811Z"/><path d="M454,69 L446,71 L441,76 L440,90 L463,209 L481,206 L481,196 L468,79 L462,71Z"/><path d="M477,814 L458,814 L438,924 L440,935 L448,941 L461,940 L468,931 L478,827Z"/><path d="M167,242 L166,254 L172,261 L262,331 L265,332 L276,319 L263,305 L186,236 L176,235Z"/><path d="M320,127 L312,135 L312,145 L364,246 L366,246 L380,238 L378,230 L337,132 L329,126Z"/><path d="M317,751 L251,833 L249,837 L249,846 L257,855 L267,856 L276,849 L328,771 L332,762Z"/><path d="M257,684 L174,743 L171,748 L171,758 L173,762 L181,768 L192,767 L263,708 L269,700Z"/><path d="M272,158 L266,165 L266,176 L325,266 L330,269 L343,260 L340,252 L290,162 L281,156Z"/><path d="M123,347 L122,358 L128,366 L223,405 L225,404 L231,390 L230,387 L140,340 L131,340Z"/><path d="M433,807 L421,804 L416,805 L390,886 L390,893 L397,901 L407,902 L413,899 L416,895 L436,810Z"/><path d="M219,608 L138,638 L133,645 L134,656 L141,662 L149,662 L225,626Z"/><path d="M424,150 L419,154 L418,162 L433,216 L447,213 L436,155 L431,150Z"/><path d="M349,773 L346,773 L320,814 L320,820 L326,827 L331,828 L337,825 L360,782 L358,778Z"/><path d="M175,459 L175,466 L179,470 L197,473 L206,473 L208,459 L186,454 L180,454Z"/></g><path fill="#FF3B30" d="M571,505 L573,514 L573,528 L571,536 L685,534 L987,535 L1008,533 L1014,527 L1015,524 L1014,513 L1011,509 L1006,506Z"/></svg>